<mxfile host="app.diagrams.net" modified="2024-04-10T11:15:02.501Z" agent="Mozilla/5.0 (Windows NT 10.0; Win64; x64) AppleWebKit/537.36 (KHTML, like Gecko) Chrome/123.0.0.0 Safari/537.36 Edg/123.0.0.0" version="24.2.3" etag="zh6KDW4ss9bnCtZ2a6M2" type="github">
  <diagram name="Page-1" id="SGy5AnTN-vzDdn6iBTi3">
    <mxGraphModel>
      <root>
        <mxCell id="0" />
        <mxCell id="1" parent="0" />
      </root>
    </mxGraphModel>
  </diagram>
</mxfile>
